# xmcd
#
# Track frame offsets: 
#        150
#        13095
#        29582
#        41890
#        59784
#        77246
#        93721
#        109729
#        128818
#        145507
#        158759
#        175400
#        193744
#        208957
#        226045
#
# Disc length: 3214 seconds
#
# Revision: 0
# Processed by: cddbd v1.5.2PL0 Copyright (c) Steve Scherf et al.
# Submitted via: ExactAudioCopy v0.95b4
#
DISCID=d90c8c0f
DTITLE=ASD - Blockbasta
DYEAR=2015
DGENRE=Hip-Hop
TTITLE0=Die Partei
TTITLE1=Blockbasta
TTITLE2=Mittelfinga hoch
TTITLE3=Deadline ft. Max Herre
TTITLE4=Bruda
TTITLE5=Überall ist Krieg
TTITLE6=Tortellini Augen
TTITLE7=Legendär Populär
TTITLE8=Ausrasta
TTITLE9=Airhorn
TTITLE10=Antihaltung
TTITLE11=Mensch gegen Maschine
TTITLE12=Non
TTITLE13=Grosses Finale
TTITLE14=Ich seh was ft. Nena
EXTD=
EXTT0=
EXTT1=
EXTT2=
EXTT3=
EXTT4=
EXTT5=
EXTT6=
EXTT7=
EXTT8=
EXTT9=
EXTT10=
EXTT11=
EXTT12=
EXTT13=
EXTT14=
PLAYORDER=
